<svg version="1.2" xmlns="http://www.w3.org/2000/svg" viewBox="0 0 48 48" width="48" height="48">
	<style>
		.s0 { fill: #ffffff } 
	</style>
	<g>
		<g>
			<path class="s0" d="m39.36 3.84h-30.72c-2.65 0-4.8 2.15-4.8 4.8v30.72c0 2.65 2.15 4.8 4.8 4.8h30.72c2.65 0 4.8-2.15 4.8-4.8v-30.72c0-2.65-2.15-4.8-4.8-4.8zm-23.04 15.36v18.24h-5.76v-18.24zm-5.76-5.31c0-1.34 1.15-2.37 2.88-2.37 1.73 0 2.81 1.03 2.88 2.37 0 1.35-1.08 2.43-2.88 2.43-1.73 0-2.88-1.08-2.88-2.43zm26.88 23.55h-5.76c0 0 0-8.89 0-9.6 0-1.92-0.96-3.84-3.36-3.88h-0.08c-2.32 0-3.28 1.98-3.28 3.88 0 0.87 0 9.6 0 9.6h-5.76v-18.24h5.76v2.46c0 0 1.85-2.46 5.58-2.46 3.81 0 6.9 2.62 6.9 7.93z"/>
		</g>
	</g>
</svg>